<?xml version="1.0" standalone="no"?>
<!DOCTYPE svg PUBLIC "-//W3C//DTD SVG 20010904//EN"
 "http://www.w3.org/TR/2001/REC-SVG-20010904/DTD/svg10.dtd">
<svg version="1.0" xmlns="http://www.w3.org/2000/svg"
 width="2475.000000pt" height="856.000000pt" viewBox="0 0 2475.000000 856.000000"
 preserveAspectRatio="xMidYMid meet">

<g transform="translate(0.000000,856.000000) scale(0.100000,-0.100000)"
fill="#000000" stroke="none">
<path d="M17260 8410 c-9 -16 5 -87 65 -339 69 -289 75 -322 63 -347 -23 -48
-57 -61 -271 -107 -114 -25 -214 -51 -222 -57 -12 -10 -15 -54 -15 -251 0
-237 0 -239 23 -252 12 -8 112 -33 222 -57 207 -44 269 -66 280 -99 3 -10 -31
-164 -75 -341 -44 -177 -78 -330 -75 -340 10 -31 52 -35 270 -30 l210 5 45 32
c25 17 221 181 435 364 263 224 408 340 445 358 l55 26 1350 -3 c803 -2 1381
-7 1427 -13 43 -5 200 -37 350 -70 l273 -61 500 -9 c620 -12 751 -6 1060 52
359 67 615 162 855 319 105 68 120 83 120 116 0 40 -167 153 -335 226 -268
118 -747 226 -1165 263 -161 14 -239 15 -595 7 l-410 -10 -289 -61 c-158 -33
-327 -65 -375 -71 -50 -5 -643 -11 -1431 -12 l-1345 -3 -40 22 c-22 12 -229
185 -461 386 -232 200 -429 367 -438 370 -10 4 -125 7 -256 7 -229 0 -240 -1
-250 -20z"/>
<path d="M14107 7643 c-3 -3 -918 -9 -2034 -13 -2201 -9 -2092 -6 -2403 -65
-444 -85 -954 -253 -1325 -438 -60 -30 -132 -66 -160 -79 l-50 -25 -210 9
c-115 6 -322 11 -458 11 l-249 2 -20 -25 c-18 -22 -20 -34 -14 -105 4 -62 10
-84 25 -96 18 -15 146 -29 386 -43 39 -2 83 -9 100 -16 l30 -11 -111 -104
c-250 -234 -388 -442 -451 -682 -21 -81 -26 -122 -27 -233 0 -76 5 -161 12
-195 51 -233 166 -458 346 -673 122 -145 364 -371 438 -409 35 -18 68 -40 75
-49 14 -19 7 -2542 -8 -2676 -18 -168 -68 -272 -145 -304 -62 -26 -271 -55
-447 -63 -224 -9 -219 -6 -219 -144 0 -101 9 -132 43 -142 12 -4 72 -2 133 4
61 6 197 12 302 14 l191 3 -9 -28 c-19 -54 -95 -195 -151 -278 -122 -184 -230
-291 -337 -331 l-55 -21 -85 28 c-126 42 -283 125 -390 205 -266 201 -498 417
-738 689 -81 91 -185 208 -232 260 -47 52 -91 103 -99 112 -12 16 1 33 122
157 258 268 416 488 573 801 188 376 289 740 339 1226 21 201 22 315 8 584
-25 456 -123 837 -313 1210 -315 617 -831 1045 -1554 1285 -679 226 -1554 251
-2273 65 -396 -103 -802 -307 -1133 -570 -139 -110 -353 -328 -464 -470 -377
-486 -565 -977 -626 -1635 -16 -173 -16 -275 -2 -501 26 -424 78 -704 191
-1025 41 -115 68 -154 100 -145 74 22 337 58 486 66 197 11 333 26 370 40 l25
9 -21 53 c-72 180 -157 475 -198 688 -88 455 -92 1021 -10 1455 94 503 274
883 557 1178 417 433 1005 639 1706 597 230 -14 368 -33 531 -75 541 -139 947
-420 1229 -852 284 -434 448 -974 496 -1628 54 -744 -114 -1517 -439 -2023
l-53 -82 -47 34 c-78 57 -251 157 -348 202 -273 127 -704 255 -1108 329 -570
105 -1443 149 -2080 104 -455 -31 -1144 -160 -1526 -285 -142 -46 -189 -72
-189 -104 0 -32 69 -214 86 -227 17 -12 43 -5 134 35 114 52 461 140 730 186
502 87 1137 128 1649 107 302 -12 737 -49 966 -82 598 -85 1115 -253 1452
-471 l93 -60 -20 -28 c-35 -49 -52 -47 -142 18 -150 107 -275 167 -541 258
-530 180 -1144 266 -1907 266 -676 0 -1480 -97 -2015 -243 -136 -37 -327 -99
-339 -110 -5 -4 9 -42 31 -86 22 -43 48 -100 58 -128 30 -83 26 -82 170 -35
424 137 1058 235 1754 270 710 35 1471 -36 1971 -185 267 -80 420 -142 549
-222 l74 -46 -28 -23 c-45 -36 -87 -39 -133 -11 -21 14 -90 45 -152 70 -771
303 -1859 418 -2940 311 -385 -38 -657 -88 -970 -181 -196 -57 -230 -72 -230
-102 0 -25 118 -271 130 -271 5 0 32 9 60 20 192 76 619 167 950 204 746 83
1552 46 2287 -104 107 -22 453 -118 466 -130 11 -9 -121 -47 -208 -60 -38 -5
-162 -13 -275 -16 -408 -13 -710 42 -1074 195 -54 23 -133 50 -175 61 -171 45
-538 51 -792 11 -133 -20 -190 -40 -214 -74 -13 -18 -10 -23 34 -58 64 -51
243 -158 356 -214 321 -157 647 -239 1112 -280 193 -17 707 -20 853 -5 224 24
493 83 678 149 63 23 130 41 151 41 32 0 70 -24 291 -186 382 -279 533 -378
890 -579 181 -103 305 -161 400 -188 76 -22 302 -64 440 -82 140 -18 664 -39
815 -32 332 15 630 151 881 401 132 132 211 248 285 417 37 86 62 128 87 150
l35 31 136 -6 c75 -4 239 -11 364 -17 304 -14 307 -12 307 134 0 139 -11 147
-197 147 -147 0 -377 30 -456 60 -58 22 -110 68 -127 115 -21 55 -39 161 -51
296 -14 156 -19 3965 -6 4309 10 284 27 448 47 472 30 37 407 111 662 129 251
19 545 -10 770 -76 583 -170 863 -650 753 -1292 -48 -276 -149 -481 -324 -653
-188 -187 -470 -326 -769 -379 -198 -36 -557 -49 -761 -28 -21 2 -27 -4 -37
-38 -28 -90 -34 -78 227 -391 445 -533 730 -895 1091 -1389 112 -154 359 -489
549 -745 189 -256 361 -488 382 -516 51 -71 105 -118 161 -139 43 -17 54 -17
134 -4 98 16 749 20 882 6 108 -12 114 -6 118 120 5 136 5 135 -144 144 -226
13 -277 49 -564 399 -131 159 -414 531 -1239 1629 -444 591 -531 709 -531 723
0 4 17 10 38 13 72 13 408 104 512 140 463 160 828 477 1026 889 150 313 174
672 68 1023 -69 232 -210 435 -395 573 -150 111 -264 163 -496 225 -78 21
-140 42 -137 47 3 4 1312 8 2908 8 2787 0 2905 1 2926 18 22 18 23 21 24 292
1 194 -2 278 -11 289 -10 15 -133 16 -1306 18 -712 1 -1297 -1 -1300 -4z
m-6093 -1595 c3 -84 5 -254 5 -378 -1 -124 1 -273 4 -333 5 -98 4 -108 -14
-118 -35 -18 -70 11 -151 131 -103 152 -138 241 -138 352 0 46 5 103 11 128
16 71 83 200 135 259 45 51 118 111 134 111 5 0 10 -69 14 -152z"/>
<path d="M14210 6959 c-289 -3 -526 -7 -527 -7 -9 -6 2 -53 36 -169 70 -231
82 -313 91 -638 15 -524 23 -2597 11 -2870 -7 -137 -16 -423 -21 -635 -5 -212
-12 -430 -15 -485 -3 -55 -10 -215 -16 -355 -14 -345 -18 -354 -214 -453 -49
-25 -101 -56 -113 -70 -69 -74 -32 -218 53 -203 138 25 347 30 1095 29 805 -1
2578 -19 2812 -29 186 -8 174 -30 181 317 3 151 15 398 26 549 22 295 25 318
47 454 18 109 14 131 -27 145 -39 14 -149 14 -183 1 -41 -15 -56 -52 -96 -232
-36 -163 -111 -463 -147 -587 -24 -86 -57 -111 -188 -149 -271 -78 -404 -86
-1495 -86 l-885 -1 -8 115 c-11 158 -14 1998 -3 2192 l8 156 47 6 c25 3 285 9
578 12 568 7 760 0 970 -36 128 -22 183 -47 213 -95 21 -35 61 -242 80 -420
20 -186 29 -238 44 -254 11 -10 43 -16 105 -19 139 -7 131 -29 131 351 0 171
-5 379 -12 460 -10 123 -9 195 4 415 9 147 16 301 15 342 -1 41 2 132 6 202 9
121 8 127 -12 147 -19 19 -33 21 -121 21 -147 0 -145 3 -154 -255 -5 -156 -30
-305 -60 -363 -9 -18 -28 -39 -41 -48 -28 -18 -222 -47 -434 -63 -177 -14
-947 -13 -1176 2 l-180 12 1 30 c2 47 14 840 24 1580 5 370 13 700 19 737 6
37 24 108 40 158 16 49 26 91 22 93 -3 1 -242 -1 -531 -4z"/>
<path d="M20276 6829 c-20 -16 -20 -22 -8 -610 7 -327 12 -812 12 -1079 0
-267 5 -656 12 -865 9 -308 9 -485 -3 -935 -8 -305 -13 -703 -11 -885 3 -418
-12 -800 -34 -875 -36 -122 -107 -178 -258 -205 -100 -17 -315 -35 -423 -35
-61 0 -77 -4 -94 -21 -19 -19 -21 -30 -17 -115 5 -138 -14 -130 291 -126 139
1 387 7 552 12 355 12 1409 -11 1508 -32 54 -12 58 -11 79 10 20 19 23 35 26
125 4 103 4 104 -23 125 -24 19 -41 22 -124 22 -226 1 -435 30 -529 76 -96 47
-126 134 -143 419 -10 179 -6 3593 6 4547 6 423 6 427 -15 448 -21 21 -27 21
-402 18 -333 -3 -384 -5 -402 -19z"/>
</g>
</svg>
