M48
; DRILL file {KiCad 7.0.8} date Thu Mar 21 20:29:24 2024
; FORMAT={-:-/ absolute / metric / decimal}
; #@! TF.CreationDate,2024-03-21T20:29:24-04:00
; #@! TF.GenerationSoftware,Kicad,Pcbnew,7.0.8
; #@! TF.FileFunction,Plated,1,2,PTH
FMAT,2
METRIC
; #@! TA.AperFunction,Plated,PTH,ViaDrill
T1C0.400
; #@! TA.AperFunction,Plated,PTH,ComponentDrill
T2C0.600
; #@! TA.AperFunction,Plated,PTH,ComponentDrill
T3C0.800
; #@! TA.AperFunction,Plated,PTH,ComponentDrill
T4C0.900
; #@! TA.AperFunction,Plated,PTH,ComponentDrill
T5C1.000
; #@! TA.AperFunction,Plated,PTH,ComponentDrill
T6C1.100
; #@! TA.AperFunction,Plated,PTH,ComponentDrill
T7C1.520
%
G90
G05
T1
X118.288Y-121.412
X120.066Y-121.412
X121.59Y-127.0
X147.295Y-104.521
X147.295Y-105.334
X147.879Y-131.801
X147.879Y-132.588
X148.107Y-104.521
X148.107Y-105.334
X148.666Y-131.801
X148.666Y-132.588
X149.327Y-108.585
X149.327Y-109.372
X150.851Y-107.721
X151.054Y-137.68
X152.527Y-138.43
X166.37Y-101.473
X166.954Y-100.889
X166.954Y-103.886
X166.954Y-104.673
X166.954Y-128.727
X166.954Y-129.515
T2
X147.784Y-110.998
X149.784Y-110.998
X155.702Y-83.668
X155.702Y-85.668
T3
X167.64Y-65.049
X167.64Y-75.209
X172.923Y-65.1
X172.923Y-75.26
X180.975Y-123.85
X180.975Y-134.01
X185.674Y-123.8
X185.674Y-133.96
T4
X166.853Y-138.176
X169.393Y-138.176
X174.015Y-138.049
X176.555Y-138.049
T5
X118.392Y-60.539
X118.392Y-78.319
X126.67Y-91.186
X126.67Y-94.869
X126.67Y-98.552
X126.67Y-102.235
X126.67Y-105.918
X126.67Y-119.634
X126.67Y-123.317
X126.67Y-127.0
X126.67Y-130.683
X126.67Y-134.366
X129.083Y-87.249
X129.21Y-115.824
X131.623Y-87.249
X131.75Y-115.824
X133.782Y-91.186
X133.782Y-94.869
X133.782Y-98.552
X133.782Y-102.235
X133.782Y-105.918
X133.782Y-119.634
X133.782Y-123.317
X133.782Y-127.0
X133.782Y-130.683
X133.782Y-134.366
X146.167Y-141.707
X148.707Y-141.707
X151.247Y-141.707
X153.787Y-141.707
X156.261Y-93.853
X156.261Y-96.393
X156.261Y-98.933
X156.261Y-101.473
X156.261Y-104.013
X156.261Y-106.553
X156.261Y-109.093
X156.261Y-111.633
X156.261Y-114.173
X156.261Y-116.713
X156.261Y-119.253
X156.261Y-121.793
X156.261Y-124.333
X156.261Y-126.873
X156.261Y-129.413
X159.032Y-60.539
X159.032Y-78.319
X171.501Y-93.853
X171.501Y-96.393
X171.501Y-98.933
X171.501Y-101.473
X171.501Y-104.013
X171.501Y-106.553
X171.501Y-109.093
X171.501Y-111.633
X171.501Y-114.173
X171.501Y-116.713
X171.501Y-119.253
X171.501Y-121.793
X171.501Y-124.333
X171.501Y-126.873
X171.501Y-129.413
X178.867Y-52.07
X178.867Y-54.61
X178.867Y-57.15
X178.867Y-59.69
X178.867Y-63.5
X178.867Y-66.04
X178.867Y-68.58
X178.867Y-71.12
X178.867Y-73.66
X178.867Y-79.121
X178.867Y-81.661
X178.867Y-84.201
X178.867Y-86.741
X178.867Y-89.281
X178.867Y-93.599
X178.867Y-96.139
X178.867Y-98.679
X178.867Y-101.219
X178.867Y-103.759
X178.867Y-108.077
X178.867Y-110.617
X178.867Y-113.157
X178.867Y-115.697
X178.867Y-118.237
T6
X138.1Y-88.392
X138.1Y-90.932
X138.1Y-93.472
X138.1Y-96.012
X138.1Y-98.552
X138.1Y-101.092
X138.1Y-103.632
X138.1Y-106.172
X138.1Y-116.84
X138.1Y-119.38
X138.1Y-121.92
X138.1Y-124.46
X138.1Y-127.0
X138.1Y-129.54
X138.1Y-132.08
X138.1Y-134.62
X140.97Y-52.121
X143.26Y-52.121
X145.55Y-52.121
X150.8Y-88.392
X150.8Y-90.932
X150.8Y-93.472
X150.8Y-96.012
X150.8Y-98.552
X150.8Y-101.092
X150.8Y-103.632
X150.8Y-106.172
X150.8Y-116.84
X150.8Y-119.38
X150.8Y-121.92
X150.8Y-124.46
X150.8Y-127.0
X150.8Y-129.54
X150.8Y-132.08
X150.8Y-134.62
T7
X113.563Y-97.638
X113.563Y-102.718
X113.563Y-107.798
X113.563Y-112.878
X113.614Y-120.726
X113.614Y-125.806
X113.614Y-130.886
X113.614Y-135.966
X155.118Y-44.704
X160.198Y-44.704
X167.818Y-44.704
X172.898Y-44.704
T0
M30
