G04 #@! TF.GenerationSoftware,KiCad,Pcbnew,7.0.8*
G04 #@! TF.CreationDate,2024-03-21T20:29:15-04:00*
G04 #@! TF.ProjectId,TechDevPCB,54656368-4465-4765-9043-422e6b696361,rev?*
G04 #@! TF.SameCoordinates,Original*
G04 #@! TF.FileFunction,Legend,Bot*
G04 #@! TF.FilePolarity,Positive*
%FSLAX46Y46*%
G04 Gerber Fmt 4.6, Leading zero omitted, Abs format (unit mm)*
G04 Created by KiCad (PCBNEW 7.0.8) date 2024-03-21 20:29:15*
%MOMM*%
%LPD*%
G01*
G04 APERTURE LIST*
G04 Aperture macros list*
%AMRoundRect*
0 Rectangle with rounded corners*
0 $1 Rounding radius*
0 $2 $3 $4 $5 $6 $7 $8 $9 X,Y pos of 4 corners*
0 Add a 4 corners polygon primitive as box body*
4,1,4,$2,$3,$4,$5,$6,$7,$8,$9,$2,$3,0*
0 Add four circle primitives for the rounded corners*
1,1,$1+$1,$2,$3*
1,1,$1+$1,$4,$5*
1,1,$1+$1,$6,$7*
1,1,$1+$1,$8,$9*
0 Add four rect primitives between the rounded corners*
20,1,$1+$1,$2,$3,$4,$5,0*
20,1,$1+$1,$4,$5,$6,$7,0*
20,1,$1+$1,$6,$7,$8,$9,0*
20,1,$1+$1,$8,$9,$2,$3,0*%
G04 Aperture macros list end*
%ADD10C,1.600000*%
%ADD11O,1.600000X1.600000*%
%ADD12R,1.700000X1.700000*%
%ADD13R,3.000000X3.000000*%
%ADD14C,3.000000*%
%ADD15O,1.700000X1.700000*%
%ADD16R,1.717500X1.800000*%
%ADD17O,1.717500X1.800000*%
%ADD18C,1.200000*%
%ADD19C,3.200000*%
%ADD20RoundRect,0.102000X-0.825000X-0.825000X0.825000X-0.825000X0.825000X0.825000X-0.825000X0.825000X0*%
%ADD21C,1.854000*%
%ADD22R,1.600000X1.600000*%
%ADD23R,1.800000X1.800000*%
%ADD24C,1.800000*%
G04 APERTURE END LIST*
%LPC*%
D10*
X167640000Y-65049400D03*
D11*
X167640000Y-75209400D03*
D12*
X126669800Y-123317000D03*
D13*
X172897800Y-44704000D03*
D14*
X167817800Y-44704000D03*
D12*
X178866800Y-63500000D03*
D15*
X178866800Y-66040000D03*
X178866800Y-68580000D03*
X178866800Y-71120000D03*
X178866800Y-73660000D03*
D16*
X140970000Y-52120800D03*
D17*
X143260000Y-52120800D03*
X145550000Y-52120800D03*
D12*
X133781800Y-130683000D03*
D18*
X155702000Y-83667600D03*
X155702000Y-85667600D03*
D12*
X126669800Y-130683000D03*
X178866800Y-79121000D03*
D15*
X178866800Y-81661000D03*
X178866800Y-84201000D03*
X178866800Y-86741000D03*
X178866800Y-89281000D03*
D18*
X149783800Y-110998000D03*
X147783800Y-110998000D03*
D12*
X126669800Y-102235000D03*
D13*
X113614200Y-120726200D03*
D14*
X113614200Y-125806200D03*
X113614200Y-130886200D03*
X113614200Y-135966200D03*
D12*
X133781800Y-127000000D03*
X133781800Y-105918000D03*
X126669800Y-119634000D03*
X133781800Y-91186000D03*
X126669800Y-105918000D03*
X133781800Y-102235000D03*
X126669800Y-91186000D03*
X131749800Y-115824000D03*
D15*
X129209800Y-115824000D03*
D19*
X184404000Y-139659900D03*
X184378600Y-43383200D03*
D12*
X126669800Y-98552000D03*
D19*
X109615698Y-43270898D03*
D20*
X138099800Y-116840000D03*
D21*
X138099800Y-119380000D03*
X138099800Y-121920000D03*
X138099800Y-124460000D03*
X138099800Y-127000000D03*
X138099800Y-129540000D03*
X138099800Y-132080000D03*
X138099800Y-134620000D03*
X150799800Y-134620000D03*
X150799800Y-132080000D03*
X150799800Y-129540000D03*
X150799800Y-127000000D03*
X150799800Y-124460000D03*
X150799800Y-121920000D03*
X150799800Y-119380000D03*
X150799800Y-116840000D03*
D12*
X153787000Y-141706600D03*
D15*
X151247000Y-141706600D03*
X148707000Y-141706600D03*
X146167000Y-141706600D03*
D12*
X178866800Y-118237000D03*
D15*
X178866800Y-115697000D03*
X178866800Y-113157000D03*
X178866800Y-110617000D03*
X178866800Y-108077000D03*
D22*
X118392400Y-60539100D03*
D11*
X159032400Y-78319100D03*
X118392400Y-78319100D03*
D10*
X159032400Y-60539100D03*
D23*
X174015400Y-138049000D03*
D24*
X176555400Y-138049000D03*
D12*
X178866800Y-93599000D03*
D15*
X178866800Y-96139000D03*
X178866800Y-98679000D03*
X178866800Y-101219000D03*
X178866800Y-103759000D03*
D10*
X172923200Y-65100200D03*
D11*
X172923200Y-75260200D03*
D13*
X113563400Y-97637600D03*
D14*
X113563400Y-102717600D03*
X113563400Y-107797600D03*
X113563400Y-112877600D03*
D13*
X160197800Y-44704000D03*
D14*
X155117800Y-44704000D03*
D12*
X178866800Y-59690000D03*
D15*
X178866800Y-57150000D03*
X178866800Y-54610000D03*
X178866800Y-52070000D03*
D12*
X133781800Y-98552000D03*
X126669800Y-94869000D03*
D22*
X156260800Y-93853000D03*
D11*
X156260800Y-96393000D03*
X156260800Y-98933000D03*
X156260800Y-101473000D03*
X156260800Y-104013000D03*
X156260800Y-106553000D03*
X156260800Y-109093000D03*
X156260800Y-111633000D03*
X156260800Y-114173000D03*
X156260800Y-116713000D03*
X156260800Y-119253000D03*
X156260800Y-121793000D03*
X156260800Y-124333000D03*
X156260800Y-126873000D03*
X156260800Y-129413000D03*
X171500800Y-129413000D03*
X171500800Y-126873000D03*
X171500800Y-124333000D03*
X171500800Y-121793000D03*
X171500800Y-119253000D03*
X171500800Y-116713000D03*
X171500800Y-114173000D03*
X171500800Y-111633000D03*
X171500800Y-109093000D03*
X171500800Y-106553000D03*
X171500800Y-104013000D03*
X171500800Y-101473000D03*
X171500800Y-98933000D03*
X171500800Y-96393000D03*
X171500800Y-93853000D03*
D12*
X126669800Y-134366000D03*
D10*
X180975000Y-123850400D03*
D11*
X180975000Y-134010400D03*
D12*
X131622800Y-87249000D03*
D15*
X129082800Y-87249000D03*
D12*
X133781800Y-123317000D03*
X133781800Y-134366000D03*
D23*
X169392600Y-138176000D03*
D24*
X166852600Y-138176000D03*
D20*
X138099800Y-88392000D03*
D21*
X138099800Y-90932000D03*
X138099800Y-93472000D03*
X138099800Y-96012000D03*
X138099800Y-98552000D03*
X138099800Y-101092000D03*
X138099800Y-103632000D03*
X138099800Y-106172000D03*
X150799800Y-106172000D03*
X150799800Y-103632000D03*
X150799800Y-101092000D03*
X150799800Y-98552000D03*
X150799800Y-96012000D03*
X150799800Y-93472000D03*
X150799800Y-90932000D03*
X150799800Y-88392000D03*
D12*
X133781800Y-119634000D03*
D10*
X185674000Y-123799600D03*
D11*
X185674000Y-133959600D03*
D12*
X133781800Y-94869000D03*
X126669800Y-127000000D03*
%LPD*%
M02*
