%TF.GenerationSoftware,KiCad,Pcbnew,7.0.8*%
%TF.CreationDate,2024-03-19T23:20:07-04:00*%
%TF.ProjectId,TechDevPCB,54656368-4465-4765-9043-422e6b696361,rev?*%
%TF.SameCoordinates,Original*%
%TF.FileFunction,Copper,L2,Bot*%
%TF.FilePolarity,Positive*%
%FSLAX46Y46*%
G04 Gerber Fmt 4.6, Leading zero omitted, Abs format (unit mm)*
G04 Created by KiCad (PCBNEW 7.0.8) date 2024-03-19 23:20:07*
%MOMM*%
%LPD*%
G01*
G04 APERTURE LIST*
%TA.AperFunction,ComponentPad*%
%ADD10C,1.600000*%
%TD*%
%TA.AperFunction,ComponentPad*%
%ADD11O,1.600000X1.600000*%
%TD*%
%TA.AperFunction,ComponentPad*%
%ADD12R,1.700000X1.700000*%
%TD*%
%TA.AperFunction,ComponentPad*%
%ADD13R,3.000000X3.000000*%
%TD*%
%TA.AperFunction,ComponentPad*%
%ADD14C,3.000000*%
%TD*%
%TA.AperFunction,ComponentPad*%
%ADD15O,1.700000X1.700000*%
%TD*%
%TA.AperFunction,ComponentPad*%
%ADD16R,1.717500X1.800000*%
%TD*%
%TA.AperFunction,ComponentPad*%
%ADD17O,1.717500X1.800000*%
%TD*%
%TA.AperFunction,ComponentPad*%
%ADD18C,1.200000*%
%TD*%
%TA.AperFunction,ComponentPad*%
%ADD19R,1.650000X1.650000*%
%TD*%
%TA.AperFunction,ComponentPad*%
%ADD20C,1.650000*%
%TD*%
%TA.AperFunction,ComponentPad*%
%ADD21R,1.600000X1.600000*%
%TD*%
%TA.AperFunction,ComponentPad*%
%ADD22R,1.800000X1.800000*%
%TD*%
%TA.AperFunction,ComponentPad*%
%ADD23C,1.800000*%
%TD*%
%TA.AperFunction,ViaPad*%
%ADD24C,0.800000*%
%TD*%
%TA.AperFunction,Conductor*%
%ADD25C,0.500000*%
%TD*%
%TA.AperFunction,Conductor*%
%ADD26C,0.300000*%
%TD*%
%TA.AperFunction,Conductor*%
%ADD27C,1.500000*%
%TD*%
G04 APERTURE END LIST*
D10*
%TO.P,R2,1*%
%TO.N,A7*%
X167640000Y-65049400D03*
D11*
%TO.P,R2,2*%
%TO.N,GND2*%
X167640000Y-75209400D03*
%TD*%
D12*
%TO.P,J26,1,Pin_1*%
%TO.N,A1*%
X126669800Y-123317000D03*
%TD*%
D13*
%TO.P,J2,1,Pin_1*%
%TO.N,Net-(J1-Pin_2)*%
X172897800Y-44704000D03*
D14*
%TO.P,J2,2,Pin_2*%
%TO.N,GND2*%
X167817800Y-44704000D03*
%TD*%
D12*
%TO.P,J6,1,Pin_1*%
%TO.N,VIN*%
X178866800Y-63500000D03*
D15*
%TO.P,J6,2,Pin_2*%
%TO.N,+5V*%
X178866800Y-66040000D03*
%TO.P,J6,3,Pin_3*%
X178866800Y-68580000D03*
%TO.P,J6,4,Pin_4*%
%TO.N,+3.3V*%
X178866800Y-71120000D03*
%TO.P,J6,5,Pin_5*%
X178866800Y-73660000D03*
%TD*%
D16*
%TO.P,Q1,1,D*%
%TO.N,Net-(J1-Pin_1)*%
X140970000Y-52120800D03*
D17*
%TO.P,Q1,2,G*%
%TO.N,GND2*%
X143260000Y-52120800D03*
%TO.P,Q1,3,S*%
%TO.N,+BATT*%
X145550000Y-52120800D03*
%TD*%
D12*
%TO.P,J31,1,Pin_1*%
%TO.N,AX2_STEP*%
X133781800Y-130683000D03*
%TD*%
D18*
%TO.P,C1,1*%
%TO.N,+24V*%
X155702000Y-83667600D03*
%TO.P,C1,2*%
%TO.N,GND2*%
X155702000Y-85667600D03*
%TD*%
D12*
%TO.P,J30,1,Pin_1*%
%TO.N,D5*%
X126669800Y-130683000D03*
%TD*%
%TO.P,J8,1,Pin_1*%
%TO.N,D1*%
X178866800Y-79121000D03*
D15*
%TO.P,J8,2,Pin_2*%
%TO.N,D0*%
X178866800Y-81661000D03*
%TO.P,J8,3,Pin_3*%
%TO.N,D6*%
X178866800Y-84201000D03*
%TO.P,J8,4,Pin_4*%
%TO.N,D7*%
X178866800Y-86741000D03*
%TO.P,J8,5,Pin_5*%
%TO.N,D8*%
X178866800Y-89281000D03*
%TD*%
D18*
%TO.P,C2,1*%
%TO.N,+BATT*%
X149783800Y-110998000D03*
%TO.P,C2,2*%
%TO.N,GND2*%
X147783800Y-110998000D03*
%TD*%
D12*
%TO.P,J18,1,Pin_1*%
%TO.N,D3*%
X126669800Y-102235000D03*
%TD*%
D13*
%TO.P,J12,1,Pin_1*%
%TO.N,AX2_B2*%
X113614200Y-120726200D03*
D14*
%TO.P,J12,2,Pin_2*%
%TO.N,AX2_B1*%
X113614200Y-125806200D03*
%TO.P,J12,3,Pin_3*%
%TO.N,AX2_A1*%
X113614200Y-130886200D03*
%TO.P,J12,4,Pin_4*%
%TO.N,AX2_A2*%
X113614200Y-135966200D03*
%TD*%
D12*
%TO.P,J25,1,Pin_1*%
%TO.N,AX2_M2*%
X133781800Y-127000000D03*
%TD*%
%TO.P,J21,1,Pin_1*%
%TO.N,AX1_DIR*%
X133781800Y-105918000D03*
%TD*%
%TO.P,J22,1,Pin_1*%
%TO.N,A0*%
X126669800Y-119634000D03*
%TD*%
%TO.P,J13,1,Pin_1*%
%TO.N,AX1_M0*%
X133781800Y-91186000D03*
%TD*%
%TO.P,J20,1,Pin_1*%
%TO.N,D2*%
X126669800Y-105918000D03*
%TD*%
%TO.P,J19,1,Pin_1*%
%TO.N,AX1_STEP*%
X133781800Y-102235000D03*
%TD*%
%TO.P,J11,1,Pin_1*%
%TO.N,A0*%
X126669800Y-91186000D03*
%TD*%
%TO.P,J5,1,Pin_1*%
%TO.N,AX2_EN*%
X131749800Y-115824000D03*
D15*
%TO.P,J5,2,Pin_2*%
%TO.N,AX2_FLT*%
X129209800Y-115824000D03*
%TD*%
D12*
%TO.P,J16,1,Pin_1*%
%TO.N,A2*%
X126669800Y-98552000D03*
%TD*%
D19*
%TO.P,U2,1,~{EN}*%
%TO.N,AX2_EN*%
X138099800Y-116840000D03*
D20*
%TO.P,U2,2,M0*%
%TO.N,AX2_M0*%
X138099800Y-119380000D03*
%TO.P,U2,3,M1*%
%TO.N,AX2_M1*%
X138099800Y-121920000D03*
%TO.P,U2,4,M2*%
%TO.N,AX2_M2*%
X138099800Y-124460000D03*
%TO.P,U2,5,~{RST}*%
%TO.N,+5V*%
X138099800Y-127000000D03*
%TO.P,U2,6,~{SLP}*%
X138099800Y-129540000D03*
%TO.P,U2,7,STEP*%
%TO.N,AX2_STEP*%
X138099800Y-132080000D03*
%TO.P,U2,8,DIR*%
%TO.N,AX2_DIR*%
X138099800Y-134620000D03*
%TO.P,U2,9,GND*%
%TO.N,GND*%
X150799800Y-134620000D03*
%TO.P,U2,10,~{FLT}*%
%TO.N,AX2_FLT*%
X150799800Y-132080000D03*
%TO.P,U2,11,A2*%
%TO.N,AX2_A2*%
X150799800Y-129540000D03*
%TO.P,U2,12,A1*%
%TO.N,AX2_A1*%
X150799800Y-127000000D03*
%TO.P,U2,13,B1*%
%TO.N,AX2_B1*%
X150799800Y-124460000D03*
%TO.P,U2,14,B2*%
%TO.N,AX2_B2*%
X150799800Y-121920000D03*
%TO.P,U2,15,GND_MOT*%
%TO.N,GND2*%
X150799800Y-119380000D03*
%TO.P,U2,16,VMOT*%
%TO.N,+BATT*%
X150799800Y-116840000D03*
%TD*%
D12*
%TO.P,J10,1,Pin_1*%
%TO.N,A3*%
X178866800Y-118237000D03*
D15*
%TO.P,J10,2,Pin_2*%
%TO.N,A4*%
X178866800Y-115697000D03*
%TO.P,J10,3,Pin_3*%
%TO.N,A5*%
X178866800Y-113157000D03*
%TO.P,J10,4,Pin_4*%
%TO.N,A6*%
X178866800Y-110617000D03*
%TO.P,J10,5,Pin_5*%
%TO.N,A7*%
X178866800Y-108077000D03*
%TD*%
D21*
%TO.P,U3,1,IN*%
%TO.N,+BATT*%
X118392400Y-60539100D03*
D11*
%TO.P,U3,2,GND*%
%TO.N,GND2*%
X159032400Y-78319100D03*
X118392400Y-78319100D03*
D10*
%TO.P,U3,3,OUT*%
%TO.N,+24V*%
X159032400Y-60539100D03*
%TD*%
D22*
%TO.P,D1,1,K*%
%TO.N,GND*%
X174015400Y-138049000D03*
D23*
%TO.P,D1,2,A*%
%TO.N,Net-(D1-A)*%
X176555400Y-138049000D03*
%TD*%
D12*
%TO.P,J9,1,Pin_1*%
%TO.N,D9*%
X178866800Y-93599000D03*
D15*
%TO.P,J9,2,Pin_2*%
%TO.N,D10*%
X178866800Y-96139000D03*
%TO.P,J9,3,Pin_3*%
%TO.N,D11*%
X178866800Y-98679000D03*
%TO.P,J9,4,Pin_4*%
%TO.N,D12*%
X178866800Y-101219000D03*
%TO.P,J9,5,Pin_5*%
%TO.N,D13*%
X178866800Y-103759000D03*
%TD*%
D10*
%TO.P,R1,1*%
%TO.N,+BATT*%
X172923200Y-65100200D03*
D11*
%TO.P,R1,2*%
%TO.N,A7*%
X172923200Y-75260200D03*
%TD*%
D13*
%TO.P,J4,1,Pin_1*%
%TO.N,AX1_B2*%
X113563400Y-97637600D03*
D14*
%TO.P,J4,2,Pin_2*%
%TO.N,AX1_B1*%
X113563400Y-102717600D03*
%TO.P,J4,3,Pin_3*%
%TO.N,AX1_A1*%
X113563400Y-107797600D03*
%TO.P,J4,4,Pin_4*%
%TO.N,AX1_A2*%
X113563400Y-112877600D03*
%TD*%
D13*
%TO.P,J1,1,Pin_1*%
%TO.N,Net-(J1-Pin_1)*%
X160197800Y-44704000D03*
D14*
%TO.P,J1,2,Pin_2*%
%TO.N,Net-(J1-Pin_2)*%
X155117800Y-44704000D03*
%TD*%
D12*
%TO.P,J7,1,Pin_1*%
%TO.N,+BATT*%
X178866800Y-59690000D03*
D15*
%TO.P,J7,2,Pin_2*%
X178866800Y-57150000D03*
%TO.P,J7,3,Pin_3*%
%TO.N,+24V*%
X178866800Y-54610000D03*
%TO.P,J7,4,Pin_4*%
X178866800Y-52070000D03*
%TD*%
D12*
%TO.P,J17,1,Pin_1*%
%TO.N,AX1_M2*%
X133781800Y-98552000D03*
%TD*%
%TO.P,J14,1,Pin_1*%
%TO.N,A1*%
X126669800Y-94869000D03*
%TD*%
D21*
%TO.P,A1,1,D1/TX*%
%TO.N,D1*%
X156260800Y-93853000D03*
D11*
%TO.P,A1,2,D0/RX*%
%TO.N,D0*%
X156260800Y-96393000D03*
%TO.P,A1,3,~{RESET}*%
%TO.N,unconnected-(A1-~{RESET}-Pad3)*%
X156260800Y-98933000D03*
%TO.P,A1,4,GND*%
%TO.N,GND*%
X156260800Y-101473000D03*
%TO.P,A1,5,D2*%
%TO.N,D2*%
X156260800Y-104013000D03*
%TO.P,A1,6,D3*%
%TO.N,D3*%
X156260800Y-106553000D03*
%TO.P,A1,7,D4*%
%TO.N,D4*%
X156260800Y-109093000D03*
%TO.P,A1,8,D5*%
%TO.N,D5*%
X156260800Y-111633000D03*
%TO.P,A1,9,D6*%
%TO.N,D6*%
X156260800Y-114173000D03*
%TO.P,A1,10,D7*%
%TO.N,D7*%
X156260800Y-116713000D03*
%TO.P,A1,11,D8*%
%TO.N,D8*%
X156260800Y-119253000D03*
%TO.P,A1,12,D9*%
%TO.N,D9*%
X156260800Y-121793000D03*
%TO.P,A1,13,D10*%
%TO.N,D10*%
X156260800Y-124333000D03*
%TO.P,A1,14,D11*%
%TO.N,D11*%
X156260800Y-126873000D03*
%TO.P,A1,15,D12*%
%TO.N,D12*%
X156260800Y-129413000D03*
%TO.P,A1,16,D13*%
%TO.N,D13*%
X171500800Y-129413000D03*
%TO.P,A1,17,3V3*%
%TO.N,+3.3V*%
X171500800Y-126873000D03*
%TO.P,A1,18,AREF*%
%TO.N,unconnected-(A1-AREF-Pad18)*%
X171500800Y-124333000D03*
%TO.P,A1,19,A0*%
%TO.N,A0*%
X171500800Y-121793000D03*
%TO.P,A1,20,A1*%
%TO.N,A1*%
X171500800Y-119253000D03*
%TO.P,A1,21,A2*%
%TO.N,A2*%
X171500800Y-116713000D03*
%TO.P,A1,22,A3*%
%TO.N,A3*%
X171500800Y-114173000D03*
%TO.P,A1,23,A4*%
%TO.N,A4*%
X171500800Y-111633000D03*
%TO.P,A1,24,A5*%
%TO.N,A5*%
X171500800Y-109093000D03*
%TO.P,A1,25,A6*%
%TO.N,A6*%
X171500800Y-106553000D03*
%TO.P,A1,26,A7*%
%TO.N,A7*%
X171500800Y-104013000D03*
%TO.P,A1,27,+5V*%
%TO.N,+5V*%
X171500800Y-101473000D03*
%TO.P,A1,28,~{RESET}*%
%TO.N,unconnected-(A1-~{RESET}-Pad28)*%
X171500800Y-98933000D03*
%TO.P,A1,29,GND*%
%TO.N,GND*%
X171500800Y-96393000D03*
%TO.P,A1,30,VIN*%
%TO.N,VIN*%
X171500800Y-93853000D03*
%TD*%
D12*
%TO.P,J28,1,Pin_1*%
%TO.N,D4*%
X126669800Y-134366000D03*
%TD*%
D10*
%TO.P,R3,1*%
%TO.N,D13*%
X180975000Y-123850400D03*
D11*
%TO.P,R3,2*%
%TO.N,Net-(D1-A)*%
X180975000Y-134010400D03*
%TD*%
D12*
%TO.P,J3,1,Pin_1*%
%TO.N,AX1_EN*%
X131622800Y-87249000D03*
D15*
%TO.P,J3,2,Pin_2*%
%TO.N,AX1_FLT*%
X129082800Y-87249000D03*
%TD*%
D12*
%TO.P,J27,1,Pin_1*%
%TO.N,AX2_M1*%
X133781800Y-123317000D03*
%TD*%
%TO.P,J29,1,Pin_1*%
%TO.N,AX2_DIR*%
X133781800Y-134366000D03*
%TD*%
D22*
%TO.P,D2,1,K*%
%TO.N,GND*%
X169392600Y-138176000D03*
D23*
%TO.P,D2,2,A*%
%TO.N,Net-(D2-A)*%
X166852600Y-138176000D03*
%TD*%
D19*
%TO.P,U1,1,~{EN}*%
%TO.N,AX1_EN*%
X138099800Y-88392000D03*
D20*
%TO.P,U1,2,M0*%
%TO.N,AX1_M0*%
X138099800Y-90932000D03*
%TO.P,U1,3,M1*%
%TO.N,AX1_M1*%
X138099800Y-93472000D03*
%TO.P,U1,4,M2*%
%TO.N,AX1_M2*%
X138099800Y-96012000D03*
%TO.P,U1,5,~{RST}*%
%TO.N,+5V*%
X138099800Y-98552000D03*
%TO.P,U1,6,~{SLP}*%
X138099800Y-101092000D03*
%TO.P,U1,7,STEP*%
%TO.N,AX1_STEP*%
X138099800Y-103632000D03*
%TO.P,U1,8,DIR*%
%TO.N,AX1_DIR*%
X138099800Y-106172000D03*
%TO.P,U1,9,GND*%
%TO.N,GND*%
X150799800Y-106172000D03*
%TO.P,U1,10,~{FLT}*%
%TO.N,AX1_FLT*%
X150799800Y-103632000D03*
%TO.P,U1,11,A2*%
%TO.N,AX1_A2*%
X150799800Y-101092000D03*
%TO.P,U1,12,A1*%
%TO.N,AX1_A1*%
X150799800Y-98552000D03*
%TO.P,U1,13,B1*%
%TO.N,AX1_B1*%
X150799800Y-96012000D03*
%TO.P,U1,14,B2*%
%TO.N,AX1_B2*%
X150799800Y-93472000D03*
%TO.P,U1,15,GND_MOT*%
%TO.N,GND2*%
X150799800Y-90932000D03*
%TO.P,U1,16,VMOT*%
%TO.N,+24V*%
X150799800Y-88392000D03*
%TD*%
D12*
%TO.P,J23,1,Pin_1*%
%TO.N,AX2_M0*%
X133781800Y-119634000D03*
%TD*%
D10*
%TO.P,R4,1*%
%TO.N,D12*%
X185674000Y-123799600D03*
D11*
%TO.P,R4,2*%
%TO.N,Net-(D2-A)*%
X185674000Y-133959600D03*
%TD*%
D12*
%TO.P,J15,1,Pin_1*%
%TO.N,AX1_M1*%
X133781800Y-94869000D03*
%TD*%
%TO.P,J24,1,Pin_1*%
%TO.N,A2*%
X126669800Y-127000000D03*
%TD*%
D24*
%TO.N,GND*%
X166954200Y-103886000D03*
X166954200Y-129514600D03*
X166370000Y-101473000D03*
X149199600Y-109372400D03*
%TO.N,D2*%
X151053800Y-137680500D03*
%TO.N,D3*%
X152527000Y-138430000D03*
%TO.N,A0*%
X118287800Y-121412000D03*
%TO.N,A1*%
X120065800Y-121412000D03*
%TO.N,A2*%
X121589800Y-127000000D03*
%TO.N,+5V*%
X150850600Y-107721400D03*
%TO.N,GND2*%
X148132800Y-105333800D03*
X147320000Y-104521000D03*
X147320000Y-105333800D03*
X148132800Y-104521000D03*
%TD*%
D25*
%TO.N,GND*%
X166370000Y-101473000D02*
X166420800Y-101473000D01*
X156260800Y-101473000D02*
X166370000Y-101473000D01*
X152704800Y-103023050D02*
X152704800Y-104267000D01*
X154254850Y-101473000D02*
X152704800Y-103023050D01*
X149199600Y-109372400D02*
X149199600Y-107772200D01*
X166420800Y-101473000D02*
X171500800Y-96393000D01*
X156260800Y-101473000D02*
X154254850Y-101473000D01*
X166954200Y-103886000D02*
X166954200Y-103784400D01*
X152704800Y-104267000D02*
X150799800Y-106172000D01*
X149199600Y-107772200D02*
X150799800Y-106172000D01*
X166954200Y-129514600D02*
X166954200Y-103886000D01*
D26*
%TO.N,D2*%
X151053800Y-137680500D02*
X153073300Y-137680500D01*
X153847800Y-136906000D02*
X153847800Y-106426000D01*
X153073300Y-137680500D02*
X153847800Y-136906000D01*
X153847800Y-106426000D02*
X156260800Y-104013000D01*
%TO.N,D3*%
X154355800Y-108458000D02*
X156260800Y-106553000D01*
X154355800Y-137377608D02*
X153303408Y-138430000D01*
X154355800Y-137377608D02*
X154355800Y-108458000D01*
X153303408Y-138430000D02*
X152527000Y-138430000D01*
D25*
%TO.N,D9*%
X164193800Y-132774000D02*
X175124800Y-132774000D01*
X175183800Y-132715000D02*
X175183800Y-93853000D01*
X159943800Y-124232051D02*
X159943800Y-128524000D01*
X175124800Y-132774000D02*
X175183800Y-132715000D01*
X175183800Y-93853000D02*
X175437800Y-93599000D01*
X159943800Y-128524000D02*
X164193800Y-132774000D01*
X157504749Y-121793000D02*
X159943800Y-124232051D01*
X156260800Y-121793000D02*
X157504749Y-121793000D01*
X175437800Y-93599000D02*
X178866800Y-93599000D01*
%TO.N,D10*%
X176072800Y-96139000D02*
X178866800Y-96139000D01*
X175883800Y-96328000D02*
X176072800Y-96139000D01*
X159181800Y-128778000D02*
X163877800Y-133474000D01*
X175437800Y-133474000D02*
X175883800Y-133028000D01*
X156260800Y-124333000D02*
X159054800Y-124333000D01*
X175883800Y-133028000D02*
X175883800Y-96328000D01*
X159054800Y-124333000D02*
X159181800Y-124460000D01*
X159181800Y-124460000D02*
X159181800Y-128778000D01*
X163877800Y-133474000D02*
X175437800Y-133474000D01*
%TO.N,D11*%
X156260800Y-126873000D02*
X158292800Y-126873000D01*
X158419800Y-129032000D02*
X163561800Y-134174000D01*
X175756800Y-134174000D02*
X176583800Y-133347000D01*
X163561800Y-134174000D02*
X175756800Y-134174000D01*
X158419800Y-127000000D02*
X158419800Y-129032000D01*
X176583800Y-133347000D02*
X176583800Y-98679000D01*
X176583800Y-98679000D02*
X178866800Y-98679000D01*
X158292800Y-126873000D02*
X158419800Y-127000000D01*
%TO.N,D12*%
X178866800Y-101219000D02*
X177469800Y-101219000D01*
X176046750Y-134874000D02*
X163245800Y-134874000D01*
X157784800Y-129413000D02*
X156260800Y-129413000D01*
X185674000Y-123444000D02*
X185674000Y-123799600D01*
X177283800Y-120472200D02*
X177283800Y-133636950D01*
X182702200Y-120472200D02*
X185674000Y-123444000D01*
X177283800Y-120472200D02*
X182702200Y-120472200D01*
X177283800Y-133636950D02*
X176046750Y-134874000D01*
X163245800Y-134874000D02*
X157784800Y-129413000D01*
X177469800Y-101219000D02*
X177283800Y-101405000D01*
X177283800Y-101405000D02*
X177283800Y-120472200D01*
%TO.N,+3.3V*%
X178866800Y-73660000D02*
X178866800Y-76581000D01*
X174421800Y-123952000D02*
X171500800Y-126873000D01*
X178866800Y-76581000D02*
X174421800Y-81026000D01*
X174421800Y-81026000D02*
X174421800Y-123952000D01*
D26*
%TO.N,A0*%
X126669800Y-119634000D02*
X120065800Y-119634000D01*
X120065800Y-119634000D02*
X118287800Y-121412000D01*
%TO.N,A1*%
X121970800Y-123317000D02*
X120065800Y-121412000D01*
X126669800Y-123317000D02*
X121970800Y-123317000D01*
%TO.N,A2*%
X126669800Y-127000000D02*
X121589800Y-127000000D01*
D25*
%TO.N,+5V*%
X150876000Y-107696000D02*
X150850600Y-107721400D01*
X153847800Y-105156000D02*
X151307800Y-107696000D01*
X172750800Y-100223000D02*
X172750800Y-80879000D01*
X171500800Y-101473000D02*
X170210800Y-102763000D01*
X177215800Y-76200000D02*
X177215800Y-69342000D01*
X153954800Y-102763000D02*
X153847800Y-102870000D01*
X153847800Y-102870000D02*
X153847800Y-105156000D01*
X172750800Y-80879000D02*
X172643800Y-80772000D01*
X172643800Y-80772000D02*
X177215800Y-76200000D01*
X151307800Y-107696000D02*
X150876000Y-107696000D01*
X150850600Y-107721400D02*
X150825200Y-107696000D01*
X177977800Y-68580000D02*
X178866800Y-68580000D01*
X177215800Y-69342000D02*
X177977800Y-68580000D01*
X171500800Y-101473000D02*
X172750800Y-100223000D01*
X170210800Y-102763000D02*
X153954800Y-102763000D01*
%TO.N,VIN*%
X176453800Y-65913000D02*
X178866800Y-63500000D01*
X171500800Y-80645000D02*
X176453800Y-75692000D01*
X171500800Y-93853000D02*
X171500800Y-80645000D01*
X176453800Y-75692000D02*
X176453800Y-65913000D01*
D27*
%TO.N,+24V*%
X155702000Y-63869500D02*
X159032400Y-60539100D01*
X159032400Y-60539100D02*
X164961500Y-54610000D01*
X154355800Y-83667600D02*
X150799800Y-87223600D01*
X155702000Y-83667600D02*
X155702000Y-63869500D01*
X150799800Y-87223600D02*
X150799800Y-88392000D01*
X155702000Y-83667600D02*
X154355800Y-83667600D01*
X164961500Y-54610000D02*
X178866800Y-54610000D01*
%TO.N,GND2*%
X118429300Y-78319100D02*
X118392400Y-78319100D01*
X141655800Y-78486000D02*
X139238800Y-76069000D01*
X139238800Y-76069000D02*
X120679400Y-76069000D01*
X157791400Y-85667600D02*
X159032400Y-84426600D01*
X120679400Y-76069000D02*
X118429300Y-78319100D01*
X150310410Y-90932000D02*
X150799800Y-90932000D01*
X147726400Y-104140000D02*
X147726400Y-104927400D01*
X143281400Y-72026400D02*
X143281400Y-57099200D01*
X141655800Y-78486000D02*
X148767800Y-85598000D01*
X139238800Y-76069000D02*
X143281400Y-72026400D01*
X155422600Y-57099200D02*
X143281400Y-57099200D01*
X147726400Y-104140000D02*
X147726400Y-110940600D01*
X148767800Y-85598000D02*
X148767800Y-89389390D01*
X159032400Y-84426600D02*
X159032400Y-78319100D01*
X143281400Y-57099200D02*
X143260000Y-57077800D01*
X159032400Y-78319100D02*
X164530300Y-78319100D01*
X155702000Y-85667600D02*
X157791400Y-85667600D01*
X147726400Y-110940600D02*
X147783800Y-110998000D01*
X155702000Y-86029800D02*
X150799800Y-90932000D01*
X143260000Y-57077800D02*
X143260000Y-52120800D01*
X164530300Y-78319100D02*
X167640000Y-75209400D01*
X148767800Y-89389390D02*
X150310410Y-90932000D01*
X167817800Y-44704000D02*
X155422600Y-57099200D01*
X155702000Y-85667600D02*
X155702000Y-86029800D01*
D26*
%TO.N,AX1_FLT*%
X148640800Y-97256600D02*
X142875000Y-91490800D01*
X140055600Y-85191600D02*
X130251200Y-85191600D01*
X142875000Y-88011000D02*
X140055600Y-85191600D01*
X142875000Y-91490800D02*
X142875000Y-88011000D01*
X152857200Y-101574600D02*
X152857200Y-97256600D01*
X152857200Y-97256600D02*
X148640800Y-97256600D01*
X129082800Y-86360000D02*
X129082800Y-87249000D01*
X150799800Y-103632000D02*
X152857200Y-101574600D01*
X130251200Y-85191600D02*
X129082800Y-86360000D01*
D27*
%TO.N,AX2_B2*%
X150799800Y-121920000D02*
X140131800Y-121920000D01*
X140131800Y-121920000D02*
X140131800Y-136144000D01*
X124358400Y-137134600D02*
X119811800Y-132588000D01*
X113690400Y-120650000D02*
X113614200Y-120726200D01*
X119811800Y-132588000D02*
X119811800Y-125222000D01*
X119811800Y-125222000D02*
X115239800Y-120650000D01*
X139141200Y-137134600D02*
X124358400Y-137134600D01*
X115239800Y-120650000D02*
X113690400Y-120650000D01*
X140131800Y-136144000D02*
X139141200Y-137134600D01*
%TO.N,AX2_B1*%
X150799800Y-124460000D02*
X142163800Y-124460000D01*
X142163800Y-124460000D02*
X142163800Y-136652000D01*
X123494800Y-139065000D02*
X117779800Y-133350000D01*
X142163800Y-136652000D02*
X139750800Y-139065000D01*
X139750800Y-139065000D02*
X123494800Y-139065000D01*
X117779800Y-125730000D02*
X113690400Y-125730000D01*
X113690400Y-125730000D02*
X113614200Y-125806200D01*
X117779800Y-133350000D02*
X117779800Y-125730000D01*
%TO.N,AX2_A2*%
X120929400Y-143205200D02*
X141198600Y-143205200D01*
X141198600Y-143205200D02*
X146227800Y-138176000D01*
X113690400Y-135966200D02*
X120929400Y-143205200D01*
X113614200Y-135966200D02*
X113690400Y-135966200D01*
X146227800Y-129540000D02*
X150799800Y-129540000D01*
X146227800Y-138176000D02*
X146227800Y-129540000D01*
%TO.N,AX2_A1*%
X144195800Y-137414000D02*
X140409400Y-141200400D01*
X140409400Y-141200400D02*
X122582200Y-141200400D01*
X144195800Y-127000000D02*
X144195800Y-137414000D01*
X150799800Y-127000000D02*
X144195800Y-127000000D01*
X113614200Y-132232400D02*
X113614200Y-130886200D01*
X122582200Y-141200400D02*
X113614200Y-132232400D01*
D25*
%TO.N,AX2_FLT*%
X152577800Y-116408200D02*
X151358600Y-115189000D01*
X151358600Y-115189000D02*
X134721600Y-115189000D01*
X132359400Y-117551200D02*
X130937000Y-117551200D01*
X130937000Y-117551200D02*
X129209800Y-115824000D01*
X152577800Y-130302000D02*
X152577800Y-116408200D01*
X150799800Y-132080000D02*
X152577800Y-130302000D01*
X134721600Y-115189000D02*
X132359400Y-117551200D01*
D27*
%TO.N,AX1_B2*%
X146685000Y-90182200D02*
X146685000Y-86461600D01*
X150799800Y-93472000D02*
X149974800Y-93472000D01*
X141528800Y-81305400D02*
X125882400Y-81305400D01*
X113563400Y-93624400D02*
X113563400Y-97637600D01*
X149974800Y-93472000D02*
X146685000Y-90182200D01*
X125882400Y-81305400D02*
X113563400Y-93624400D01*
X146685000Y-86461600D02*
X141528800Y-81305400D01*
%TO.N,AX1_B1*%
X149326600Y-96012000D02*
X144145000Y-90830400D01*
X116408200Y-99872800D02*
X113563400Y-102717600D01*
X126339600Y-83896200D02*
X116408200Y-93827600D01*
X144145000Y-90830400D02*
X144145000Y-87299800D01*
X150799800Y-96012000D02*
X149326600Y-96012000D01*
X144145000Y-87299800D02*
X140741400Y-83896200D01*
X116408200Y-93827600D02*
X116408200Y-99872800D01*
X140741400Y-83896200D02*
X126339600Y-83896200D01*
%TO.N,AX1_A2*%
X138023600Y-112877600D02*
X113563400Y-112877600D01*
X142697200Y-108204000D02*
X138023600Y-112877600D01*
X150799800Y-101092000D02*
X142697200Y-101092000D01*
X142697200Y-101092000D02*
X142697200Y-108204000D01*
%TO.N,AX1_A1*%
X115265200Y-107797600D02*
X113563400Y-107797600D01*
X140385800Y-98958400D02*
X140385800Y-107619800D01*
X118262400Y-110794800D02*
X115265200Y-107797600D01*
X140792200Y-98552000D02*
X140385800Y-98958400D01*
X137210800Y-110794800D02*
X118262400Y-110794800D01*
X140385800Y-107619800D02*
X137210800Y-110794800D01*
X150799800Y-98552000D02*
X140792200Y-98552000D01*
%TO.N,Net-(J1-Pin_1)*%
X154957400Y-49944400D02*
X160197800Y-44704000D01*
X141003400Y-49944400D02*
X154957400Y-49944400D01*
X140970000Y-49977800D02*
X141003400Y-49944400D01*
X140970000Y-52120800D02*
X140970000Y-49977800D01*
D25*
%TO.N,Net-(D1-A)*%
X176936400Y-138049000D02*
X176555400Y-138049000D01*
X180975000Y-134010400D02*
X176936400Y-138049000D01*
%TD*%
M02*
