M48
; DRILL file {KiCad 7.0.8} date Tue Mar 19 23:20:13 2024
; FORMAT={-:-/ absolute / inch / decimal}
; #@! TF.CreationDate,2024-03-19T23:20:13-04:00
; #@! TF.GenerationSoftware,Kicad,Pcbnew,7.0.8
; #@! TF.FileFunction,Plated,1,2,PTH
FMAT,2
INCH
; #@! TA.AperFunction,Plated,PTH,ViaDrill
T1C0.0157
; #@! TA.AperFunction,Plated,PTH,ComponentDrill
T2C0.0236
; #@! TA.AperFunction,Plated,PTH,ComponentDrill
T3C0.0315
; #@! TA.AperFunction,Plated,PTH,ComponentDrill
T4C0.0354
; #@! TA.AperFunction,Plated,PTH,ComponentDrill
T5C0.0394
; #@! TA.AperFunction,Plated,PTH,ComponentDrill
T6C0.0433
; #@! TA.AperFunction,Plated,PTH,ComponentDrill
T7C0.0598
%
G90
G05
T1
X4.657Y-4.78
X4.727Y-4.78
X4.787Y-5.0
X5.8Y-4.115
X5.8Y-4.147
X5.832Y-4.115
X5.832Y-4.147
X5.874Y-4.306
X5.939Y-4.241
X5.947Y-5.4205
X6.005Y-5.45
X6.55Y-3.995
X6.573Y-4.09
X6.573Y-5.099
T2
X5.8183Y-4.37
X5.897Y-4.37
X6.13Y-3.294
X6.13Y-3.3727
T3
X6.6Y-2.561
X6.6Y-2.961
X6.808Y-2.563
X6.808Y-2.963
X7.125Y-4.876
X7.125Y-5.276
X7.31Y-4.874
X7.31Y-5.274
T4
X6.569Y-5.44
X6.669Y-5.44
X6.851Y-5.435
X6.951Y-5.435
T5
X4.6611Y-2.3834
X4.6611Y-3.0834
X4.987Y-3.59
X4.987Y-3.735
X4.987Y-3.88
X4.987Y-4.025
X4.987Y-4.17
X4.987Y-4.71
X4.987Y-4.855
X4.987Y-5.0
X4.987Y-5.145
X4.987Y-5.29
X5.082Y-3.435
X5.087Y-4.56
X5.182Y-3.435
X5.187Y-4.56
X5.267Y-3.59
X5.267Y-3.735
X5.267Y-3.88
X5.267Y-4.025
X5.267Y-4.17
X5.267Y-4.71
X5.267Y-4.855
X5.267Y-5.0
X5.267Y-5.145
X5.267Y-5.29
X6.152Y-3.695
X6.152Y-3.795
X6.152Y-3.895
X6.152Y-3.995
X6.152Y-4.095
X6.152Y-4.195
X6.152Y-4.295
X6.152Y-4.395
X6.152Y-4.495
X6.152Y-4.595
X6.152Y-4.695
X6.152Y-4.795
X6.152Y-4.895
X6.152Y-4.995
X6.152Y-5.095
X6.2611Y-2.3834
X6.2611Y-3.0834
X6.752Y-3.695
X6.752Y-3.795
X6.752Y-3.895
X6.752Y-3.995
X6.752Y-4.095
X6.752Y-4.195
X6.752Y-4.295
X6.752Y-4.395
X6.752Y-4.495
X6.752Y-4.595
X6.752Y-4.695
X6.752Y-4.795
X6.752Y-4.895
X6.752Y-4.995
X6.752Y-5.095
X7.042Y-2.05
X7.042Y-2.15
X7.042Y-2.25
X7.042Y-2.35
X7.042Y-2.5
X7.042Y-2.6
X7.042Y-2.7
X7.042Y-2.8
X7.042Y-2.9
X7.042Y-3.115
X7.042Y-3.215
X7.042Y-3.315
X7.042Y-3.415
X7.042Y-3.515
X7.042Y-3.685
X7.042Y-3.785
X7.042Y-3.885
X7.042Y-3.985
X7.042Y-4.085
X7.042Y-4.255
X7.042Y-4.355
X7.042Y-4.455
X7.042Y-4.555
X7.042Y-4.655
T6
X5.437Y-3.48
X5.437Y-3.58
X5.437Y-3.68
X5.437Y-3.78
X5.437Y-3.88
X5.437Y-3.98
X5.437Y-4.08
X5.437Y-4.18
X5.437Y-4.6
X5.437Y-4.7
X5.437Y-4.8
X5.437Y-4.9
X5.437Y-5.0
X5.437Y-5.1
X5.437Y-5.2
X5.437Y-5.3
X5.55Y-2.052
X5.6402Y-2.052
X5.7303Y-2.052
X5.937Y-3.48
X5.937Y-3.58
X5.937Y-3.68
X5.937Y-3.78
X5.937Y-3.88
X5.937Y-3.98
X5.937Y-4.08
X5.937Y-4.18
X5.937Y-4.6
X5.937Y-4.7
X5.937Y-4.8
X5.937Y-4.9
X5.937Y-5.0
X5.937Y-5.1
X5.937Y-5.2
X5.937Y-5.3
T7
X4.471Y-3.844
X4.471Y-4.044
X4.471Y-4.244
X4.471Y-4.444
X4.473Y-4.753
X4.473Y-4.953
X4.473Y-5.153
X4.473Y-5.353
X6.107Y-1.76
X6.307Y-1.76
X6.607Y-1.76
X6.807Y-1.76
T0
M30
