%TF.GenerationSoftware,KiCad,Pcbnew,7.0.8*%
%TF.CreationDate,2024-03-19T23:20:07-04:00*%
%TF.ProjectId,TechDevPCB,54656368-4465-4765-9043-422e6b696361,rev?*%
%TF.SameCoordinates,Original*%
%TF.FileFunction,Soldermask,Top*%
%TF.FilePolarity,Negative*%
%FSLAX46Y46*%
G04 Gerber Fmt 4.6, Leading zero omitted, Abs format (unit mm)*
G04 Created by KiCad (PCBNEW 7.0.8) date 2024-03-19 23:20:07*
%MOMM*%
%LPD*%
G01*
G04 APERTURE LIST*
G04 Aperture macros list*
%AMRoundRect*
0 Rectangle with rounded corners*
0 $1 Rounding radius*
0 $2 $3 $4 $5 $6 $7 $8 $9 X,Y pos of 4 corners*
0 Add a 4 corners polygon primitive as box body*
4,1,4,$2,$3,$4,$5,$6,$7,$8,$9,$2,$3,0*
0 Add four circle primitives for the rounded corners*
1,1,$1+$1,$2,$3*
1,1,$1+$1,$4,$5*
1,1,$1+$1,$6,$7*
1,1,$1+$1,$8,$9*
0 Add four rect primitives between the rounded corners*
20,1,$1+$1,$2,$3,$4,$5,0*
20,1,$1+$1,$4,$5,$6,$7,0*
20,1,$1+$1,$6,$7,$8,$9,0*
20,1,$1+$1,$8,$9,$2,$3,0*%
G04 Aperture macros list end*
%ADD10C,1.600000*%
%ADD11O,1.600000X1.600000*%
%ADD12R,1.700000X1.700000*%
%ADD13R,3.000000X3.000000*%
%ADD14C,3.000000*%
%ADD15O,1.700000X1.700000*%
%ADD16R,1.717500X1.800000*%
%ADD17O,1.717500X1.800000*%
%ADD18R,5.700000X6.200000*%
%ADD19C,1.200000*%
%ADD20R,1.000000X1.500000*%
%ADD21C,3.200000*%
%ADD22RoundRect,0.102000X-0.825000X-0.825000X0.825000X-0.825000X0.825000X0.825000X-0.825000X0.825000X0*%
%ADD23C,1.854000*%
%ADD24R,1.600000X1.600000*%
%ADD25R,1.800000X1.800000*%
%ADD26C,1.800000*%
G04 APERTURE END LIST*
D10*
%TO.C,R2*%
X167640000Y-65049400D03*
D11*
X167640000Y-75209400D03*
%TD*%
D12*
%TO.C,J26*%
X126669800Y-123317000D03*
%TD*%
D13*
%TO.C,J2*%
X172897800Y-44704000D03*
D14*
X167817800Y-44704000D03*
%TD*%
D12*
%TO.C,J6*%
X178866800Y-63500000D03*
D15*
X178866800Y-66040000D03*
X178866800Y-68580000D03*
X178866800Y-71120000D03*
X178866800Y-73660000D03*
%TD*%
D16*
%TO.C,Q1*%
X140970000Y-52120800D03*
D17*
X143260000Y-52120800D03*
X145550000Y-52120800D03*
D18*
X143260000Y-44687467D03*
%TD*%
D12*
%TO.C,J31*%
X133781800Y-130683000D03*
%TD*%
D19*
%TO.C,C1*%
X155702000Y-83667600D03*
X155702000Y-85667600D03*
%TD*%
D20*
%TO.C,JP1*%
X129560800Y-91186000D03*
X130860800Y-91186000D03*
%TD*%
D12*
%TO.C,J30*%
X126669800Y-130683000D03*
%TD*%
D20*
%TO.C,JP9*%
X129560800Y-134366000D03*
X130860800Y-134366000D03*
%TD*%
D12*
%TO.C,J8*%
X178866800Y-79121000D03*
D15*
X178866800Y-81661000D03*
X178866800Y-84201000D03*
X178866800Y-86741000D03*
X178866800Y-89281000D03*
%TD*%
D19*
%TO.C,C2*%
X149783800Y-110998000D03*
X147783800Y-110998000D03*
%TD*%
D12*
%TO.C,J18*%
X126669800Y-102235000D03*
%TD*%
D13*
%TO.C,J12*%
X113614200Y-120726200D03*
D14*
X113614200Y-125806200D03*
X113614200Y-130886200D03*
X113614200Y-135966200D03*
%TD*%
D12*
%TO.C,J25*%
X133781800Y-127000000D03*
%TD*%
%TO.C,J21*%
X133781800Y-105918000D03*
%TD*%
%TO.C,J22*%
X126669800Y-119634000D03*
%TD*%
D20*
%TO.C,JP5*%
X129560800Y-105918000D03*
X130860800Y-105918000D03*
%TD*%
D12*
%TO.C,J13*%
X133781800Y-91186000D03*
%TD*%
%TO.C,J20*%
X126669800Y-105918000D03*
%TD*%
%TO.C,J19*%
X133781800Y-102235000D03*
%TD*%
D20*
%TO.C,JP7*%
X129560800Y-127000000D03*
X130860800Y-127000000D03*
%TD*%
%TO.C,JP3*%
X129560800Y-98552000D03*
X130860800Y-98552000D03*
%TD*%
D12*
%TO.C,J11*%
X126669800Y-91186000D03*
%TD*%
%TO.C,J5*%
X131749800Y-115824000D03*
D15*
X129209800Y-115824000D03*
%TD*%
D21*
%TO.C,H1*%
X184404000Y-139659900D03*
%TD*%
%TO.C,H2*%
X184378600Y-43383200D03*
%TD*%
D12*
%TO.C,J16*%
X126669800Y-98552000D03*
%TD*%
D21*
%TO.C,H3*%
X109615698Y-43270898D03*
%TD*%
D22*
%TO.C,U2*%
X138099800Y-116840000D03*
D23*
X138099800Y-119380000D03*
X138099800Y-121920000D03*
X138099800Y-124460000D03*
X138099800Y-127000000D03*
X138099800Y-129540000D03*
X138099800Y-132080000D03*
X138099800Y-134620000D03*
X150799800Y-134620000D03*
X150799800Y-132080000D03*
X150799800Y-129540000D03*
X150799800Y-127000000D03*
X150799800Y-124460000D03*
X150799800Y-121920000D03*
X150799800Y-119380000D03*
X150799800Y-116840000D03*
%TD*%
D20*
%TO.C,JP8*%
X129560800Y-123317000D03*
X130860800Y-123317000D03*
%TD*%
D12*
%TO.C,J10*%
X178866800Y-118237000D03*
D15*
X178866800Y-115697000D03*
X178866800Y-113157000D03*
X178866800Y-110617000D03*
X178866800Y-108077000D03*
%TD*%
D24*
%TO.C,U3*%
X118392400Y-60539100D03*
D11*
X159032400Y-78319100D03*
X118392400Y-78319100D03*
D10*
X159032400Y-60539100D03*
%TD*%
D25*
%TO.C,D1*%
X174015400Y-138049000D03*
D26*
X176555400Y-138049000D03*
%TD*%
D12*
%TO.C,J9*%
X178866800Y-93599000D03*
D15*
X178866800Y-96139000D03*
X178866800Y-98679000D03*
X178866800Y-101219000D03*
X178866800Y-103759000D03*
%TD*%
D10*
%TO.C,R1*%
X172923200Y-65100200D03*
D11*
X172923200Y-75260200D03*
%TD*%
D13*
%TO.C,J4*%
X113563400Y-97637600D03*
D14*
X113563400Y-102717600D03*
X113563400Y-107797600D03*
X113563400Y-112877600D03*
%TD*%
D20*
%TO.C,JP2*%
X129575800Y-94869000D03*
X130875800Y-94869000D03*
%TD*%
%TO.C,JP6*%
X129560800Y-119634000D03*
X130860800Y-119634000D03*
%TD*%
D13*
%TO.C,J1*%
X160197800Y-44704000D03*
D14*
X155117800Y-44704000D03*
%TD*%
D20*
%TO.C,JP4*%
X129560800Y-102235000D03*
X130860800Y-102235000D03*
%TD*%
D12*
%TO.C,J7*%
X178866800Y-59690000D03*
D15*
X178866800Y-57150000D03*
X178866800Y-54610000D03*
X178866800Y-52070000D03*
%TD*%
D12*
%TO.C,J17*%
X133781800Y-98552000D03*
%TD*%
%TO.C,J14*%
X126669800Y-94869000D03*
%TD*%
D24*
%TO.C,A1*%
X156260800Y-93853000D03*
D11*
X156260800Y-96393000D03*
X156260800Y-98933000D03*
X156260800Y-101473000D03*
X156260800Y-104013000D03*
X156260800Y-106553000D03*
X156260800Y-109093000D03*
X156260800Y-111633000D03*
X156260800Y-114173000D03*
X156260800Y-116713000D03*
X156260800Y-119253000D03*
X156260800Y-121793000D03*
X156260800Y-124333000D03*
X156260800Y-126873000D03*
X156260800Y-129413000D03*
X171500800Y-129413000D03*
X171500800Y-126873000D03*
X171500800Y-124333000D03*
X171500800Y-121793000D03*
X171500800Y-119253000D03*
X171500800Y-116713000D03*
X171500800Y-114173000D03*
X171500800Y-111633000D03*
X171500800Y-109093000D03*
X171500800Y-106553000D03*
X171500800Y-104013000D03*
X171500800Y-101473000D03*
X171500800Y-98933000D03*
X171500800Y-96393000D03*
X171500800Y-93853000D03*
%TD*%
D12*
%TO.C,J28*%
X126669800Y-134366000D03*
%TD*%
D10*
%TO.C,R3*%
X180975000Y-123850400D03*
D11*
X180975000Y-134010400D03*
%TD*%
D12*
%TO.C,J3*%
X131622800Y-87249000D03*
D15*
X129082800Y-87249000D03*
%TD*%
D12*
%TO.C,J27*%
X133781800Y-123317000D03*
%TD*%
D20*
%TO.C,JP10*%
X129560800Y-130683000D03*
X130860800Y-130683000D03*
%TD*%
D12*
%TO.C,J29*%
X133781800Y-134366000D03*
%TD*%
D25*
%TO.C,D2*%
X169392600Y-138176000D03*
D26*
X166852600Y-138176000D03*
%TD*%
D22*
%TO.C,U1*%
X138099800Y-88392000D03*
D23*
X138099800Y-90932000D03*
X138099800Y-93472000D03*
X138099800Y-96012000D03*
X138099800Y-98552000D03*
X138099800Y-101092000D03*
X138099800Y-103632000D03*
X138099800Y-106172000D03*
X150799800Y-106172000D03*
X150799800Y-103632000D03*
X150799800Y-101092000D03*
X150799800Y-98552000D03*
X150799800Y-96012000D03*
X150799800Y-93472000D03*
X150799800Y-90932000D03*
X150799800Y-88392000D03*
%TD*%
D12*
%TO.C,J23*%
X133781800Y-119634000D03*
%TD*%
D10*
%TO.C,R4*%
X185674000Y-123799600D03*
D11*
X185674000Y-133959600D03*
%TD*%
D12*
%TO.C,J15*%
X133781800Y-94869000D03*
%TD*%
%TO.C,J24*%
X126669800Y-127000000D03*
%TD*%
M02*
