G04 #@! TF.GenerationSoftware,KiCad,Pcbnew,7.0.8*
G04 #@! TF.CreationDate,2024-03-21T20:29:15-04:00*
G04 #@! TF.ProjectId,TechDevPCB,54656368-4465-4765-9043-422e6b696361,rev?*
G04 #@! TF.SameCoordinates,Original*
G04 #@! TF.FileFunction,Copper,L1,Top*
G04 #@! TF.FilePolarity,Positive*
%FSLAX46Y46*%
G04 Gerber Fmt 4.6, Leading zero omitted, Abs format (unit mm)*
G04 Created by KiCad (PCBNEW 7.0.8) date 2024-03-21 20:29:15*
%MOMM*%
%LPD*%
G01*
G04 APERTURE LIST*
G04 #@! TA.AperFunction,ComponentPad*
%ADD10C,1.600000*%
G04 #@! TD*
G04 #@! TA.AperFunction,ComponentPad*
%ADD11O,1.600000X1.600000*%
G04 #@! TD*
G04 #@! TA.AperFunction,ComponentPad*
%ADD12R,1.700000X1.700000*%
G04 #@! TD*
G04 #@! TA.AperFunction,ComponentPad*
%ADD13R,3.000000X3.000000*%
G04 #@! TD*
G04 #@! TA.AperFunction,ComponentPad*
%ADD14C,3.000000*%
G04 #@! TD*
G04 #@! TA.AperFunction,ComponentPad*
%ADD15O,1.700000X1.700000*%
G04 #@! TD*
G04 #@! TA.AperFunction,ComponentPad*
%ADD16R,1.717500X1.800000*%
G04 #@! TD*
G04 #@! TA.AperFunction,ComponentPad*
%ADD17O,1.717500X1.800000*%
G04 #@! TD*
G04 #@! TA.AperFunction,SMDPad,CuDef*
%ADD18R,5.700000X6.200000*%
G04 #@! TD*
G04 #@! TA.AperFunction,ComponentPad*
%ADD19C,1.200000*%
G04 #@! TD*
G04 #@! TA.AperFunction,SMDPad,CuDef*
%ADD20R,1.000000X1.500000*%
G04 #@! TD*
G04 #@! TA.AperFunction,ComponentPad*
%ADD21R,1.650000X1.650000*%
G04 #@! TD*
G04 #@! TA.AperFunction,ComponentPad*
%ADD22C,1.650000*%
G04 #@! TD*
G04 #@! TA.AperFunction,ComponentPad*
%ADD23R,1.600000X1.600000*%
G04 #@! TD*
G04 #@! TA.AperFunction,ComponentPad*
%ADD24R,1.800000X1.800000*%
G04 #@! TD*
G04 #@! TA.AperFunction,ComponentPad*
%ADD25C,1.800000*%
G04 #@! TD*
G04 #@! TA.AperFunction,ViaPad*
%ADD26C,0.800000*%
G04 #@! TD*
G04 #@! TA.AperFunction,Conductor*
%ADD27C,0.300000*%
G04 #@! TD*
G04 #@! TA.AperFunction,Conductor*
%ADD28C,0.500000*%
G04 #@! TD*
G04 #@! TA.AperFunction,Conductor*
%ADD29C,1.000000*%
G04 #@! TD*
G04 #@! TA.AperFunction,Conductor*
%ADD30C,1.500000*%
G04 #@! TD*
G04 APERTURE END LIST*
D10*
X167640000Y-65049400D03*
D11*
X167640000Y-75209400D03*
D12*
X126669800Y-123317000D03*
D13*
X172897800Y-44704000D03*
D14*
X167817800Y-44704000D03*
D12*
X178866800Y-63500000D03*
D15*
X178866800Y-66040000D03*
X178866800Y-68580000D03*
X178866800Y-71120000D03*
X178866800Y-73660000D03*
D16*
X140970000Y-52120800D03*
D17*
X143260000Y-52120800D03*
X145550000Y-52120800D03*
D18*
X143260000Y-44687467D03*
D12*
X133781800Y-130683000D03*
D19*
X155702000Y-83667600D03*
X155702000Y-85667600D03*
D20*
X129560800Y-91186000D03*
X130860800Y-91186000D03*
D12*
X126669800Y-130683000D03*
D20*
X129560800Y-134366000D03*
X130860800Y-134366000D03*
D12*
X178866800Y-79121000D03*
D15*
X178866800Y-81661000D03*
X178866800Y-84201000D03*
X178866800Y-86741000D03*
X178866800Y-89281000D03*
D19*
X149783800Y-110998000D03*
X147783800Y-110998000D03*
D12*
X126669800Y-102235000D03*
D13*
X113614200Y-120726200D03*
D14*
X113614200Y-125806200D03*
X113614200Y-130886200D03*
X113614200Y-135966200D03*
D12*
X133781800Y-127000000D03*
X133781800Y-105918000D03*
X126669800Y-119634000D03*
D20*
X129560800Y-105918000D03*
X130860800Y-105918000D03*
D12*
X133781800Y-91186000D03*
X126669800Y-105918000D03*
X133781800Y-102235000D03*
D20*
X129560800Y-127000000D03*
X130860800Y-127000000D03*
X129560800Y-98552000D03*
X130860800Y-98552000D03*
D12*
X126669800Y-91186000D03*
X131749800Y-115824000D03*
D15*
X129209800Y-115824000D03*
D12*
X126669800Y-98552000D03*
D21*
X138099800Y-116840000D03*
D22*
X138099800Y-119380000D03*
X138099800Y-121920000D03*
X138099800Y-124460000D03*
X138099800Y-127000000D03*
X138099800Y-129540000D03*
X138099800Y-132080000D03*
X138099800Y-134620000D03*
X150799800Y-134620000D03*
X150799800Y-132080000D03*
X150799800Y-129540000D03*
X150799800Y-127000000D03*
X150799800Y-124460000D03*
X150799800Y-121920000D03*
X150799800Y-119380000D03*
X150799800Y-116840000D03*
D20*
X129560800Y-123317000D03*
X130860800Y-123317000D03*
D12*
X153787000Y-141706600D03*
D15*
X151247000Y-141706600D03*
X148707000Y-141706600D03*
X146167000Y-141706600D03*
D12*
X178866800Y-118237000D03*
D15*
X178866800Y-115697000D03*
X178866800Y-113157000D03*
X178866800Y-110617000D03*
X178866800Y-108077000D03*
D23*
X118392400Y-60539100D03*
D11*
X159032400Y-78319100D03*
X118392400Y-78319100D03*
D10*
X159032400Y-60539100D03*
D24*
X174015400Y-138049000D03*
D25*
X176555400Y-138049000D03*
D12*
X178866800Y-93599000D03*
D15*
X178866800Y-96139000D03*
X178866800Y-98679000D03*
X178866800Y-101219000D03*
X178866800Y-103759000D03*
D10*
X172923200Y-65100200D03*
D11*
X172923200Y-75260200D03*
D13*
X113563400Y-97637600D03*
D14*
X113563400Y-102717600D03*
X113563400Y-107797600D03*
X113563400Y-112877600D03*
D20*
X129575800Y-94869000D03*
X130875800Y-94869000D03*
X129560800Y-119634000D03*
X130860800Y-119634000D03*
D13*
X160197800Y-44704000D03*
D14*
X155117800Y-44704000D03*
D20*
X129560800Y-102235000D03*
X130860800Y-102235000D03*
D12*
X178866800Y-59690000D03*
D15*
X178866800Y-57150000D03*
X178866800Y-54610000D03*
X178866800Y-52070000D03*
D12*
X133781800Y-98552000D03*
X126669800Y-94869000D03*
D23*
X156260800Y-93853000D03*
D11*
X156260800Y-96393000D03*
X156260800Y-98933000D03*
X156260800Y-101473000D03*
X156260800Y-104013000D03*
X156260800Y-106553000D03*
X156260800Y-109093000D03*
X156260800Y-111633000D03*
X156260800Y-114173000D03*
X156260800Y-116713000D03*
X156260800Y-119253000D03*
X156260800Y-121793000D03*
X156260800Y-124333000D03*
X156260800Y-126873000D03*
X156260800Y-129413000D03*
X171500800Y-129413000D03*
X171500800Y-126873000D03*
X171500800Y-124333000D03*
X171500800Y-121793000D03*
X171500800Y-119253000D03*
X171500800Y-116713000D03*
X171500800Y-114173000D03*
X171500800Y-111633000D03*
X171500800Y-109093000D03*
X171500800Y-106553000D03*
X171500800Y-104013000D03*
X171500800Y-101473000D03*
X171500800Y-98933000D03*
X171500800Y-96393000D03*
X171500800Y-93853000D03*
D12*
X126669800Y-134366000D03*
D10*
X180975000Y-123850400D03*
D11*
X180975000Y-134010400D03*
D12*
X131622800Y-87249000D03*
D15*
X129082800Y-87249000D03*
D12*
X133781800Y-123317000D03*
D20*
X129560800Y-130683000D03*
X130860800Y-130683000D03*
D12*
X133781800Y-134366000D03*
D24*
X169392600Y-138176000D03*
D25*
X166852600Y-138176000D03*
D21*
X138099800Y-88392000D03*
D22*
X138099800Y-90932000D03*
X138099800Y-93472000D03*
X138099800Y-96012000D03*
X138099800Y-98552000D03*
X138099800Y-101092000D03*
X138099800Y-103632000D03*
X138099800Y-106172000D03*
X150799800Y-106172000D03*
X150799800Y-103632000D03*
X150799800Y-101092000D03*
X150799800Y-98552000D03*
X150799800Y-96012000D03*
X150799800Y-93472000D03*
X150799800Y-90932000D03*
X150799800Y-88392000D03*
D12*
X133781800Y-119634000D03*
D10*
X185674000Y-123799600D03*
D11*
X185674000Y-133959600D03*
D12*
X133781800Y-94869000D03*
X126669800Y-127000000D03*
D26*
X149326600Y-108585000D03*
X166954200Y-103886000D03*
X166954200Y-104673400D03*
X166954200Y-129514600D03*
X166370000Y-101473000D03*
X149326600Y-109372400D03*
X166954200Y-128727200D03*
X166954200Y-100888800D03*
X151053800Y-137680500D03*
X152527000Y-138430000D03*
X118287800Y-121412000D03*
X120065800Y-121412000D03*
X121589800Y-127000000D03*
X148666200Y-132588000D03*
X148107400Y-105333800D03*
X147294600Y-104521000D03*
X148666200Y-131800600D03*
X147294600Y-105333800D03*
X147878800Y-132588000D03*
X147878800Y-131800600D03*
X148107400Y-104521000D03*
X150850600Y-107721400D03*
D27*
X171500800Y-117322600D02*
X171500800Y-116713000D01*
X151974339Y-138938000D02*
X152216339Y-139180000D01*
X122631200Y-138938000D02*
X151974339Y-138938000D01*
X152216339Y-139180000D02*
X153555000Y-139180000D01*
X153555000Y-139180000D02*
X158673800Y-134061200D01*
X158673800Y-130149600D02*
X171500800Y-117322600D01*
X121589800Y-137896600D02*
X122631200Y-138938000D01*
X121589800Y-127000000D02*
X121589800Y-137896600D01*
X158673800Y-134061200D02*
X158673800Y-130149600D01*
X171500800Y-119608600D02*
X171500800Y-119253000D01*
X159308800Y-134340600D02*
X159308800Y-131800600D01*
X151893306Y-139680000D02*
X153969400Y-139680000D01*
X151659306Y-139446000D02*
X151893306Y-139680000D01*
X122072400Y-139446000D02*
X151659306Y-139446000D01*
X120065800Y-137439400D02*
X122072400Y-139446000D01*
X159308800Y-131800600D02*
X171500800Y-119608600D01*
X153969400Y-139680000D02*
X159308800Y-134340600D01*
X120065800Y-121412000D02*
X120065800Y-137439400D01*
X160197800Y-134645400D02*
X154568600Y-140274600D01*
X118287800Y-136906000D02*
X118287800Y-121412000D01*
X160197800Y-132765800D02*
X160197800Y-134645400D01*
X121656400Y-140274600D02*
X118287800Y-136906000D01*
X171170600Y-121793000D02*
X160197800Y-132765800D01*
X171500800Y-121793000D02*
X171170600Y-121793000D01*
X154568600Y-140274600D02*
X121656400Y-140274600D01*
D28*
X178739800Y-78994000D02*
X178866800Y-79121000D01*
X171627800Y-81788000D02*
X174421800Y-78994000D01*
X168325800Y-81788000D02*
X171627800Y-81788000D01*
X156260800Y-93853000D02*
X168325800Y-81788000D01*
X174421800Y-78994000D02*
X178739800Y-78994000D01*
X178612800Y-81407000D02*
X178866800Y-81661000D01*
X174040800Y-81407000D02*
X178612800Y-81407000D01*
X156260800Y-96393000D02*
X169595800Y-83058000D01*
X169595800Y-83058000D02*
X172389800Y-83058000D01*
X172389800Y-83058000D02*
X174040800Y-81407000D01*
D29*
X149326600Y-109372400D02*
X149326600Y-108585000D01*
X174015400Y-138049000D02*
X169519600Y-138049000D01*
X166954200Y-103886000D02*
X166954200Y-104673400D01*
X145846800Y-109372400D02*
X149199600Y-109372400D01*
X166370000Y-103301800D02*
X166954200Y-103886000D01*
X169392600Y-131953000D02*
X166954200Y-129514600D01*
X166954200Y-128727200D02*
X166954200Y-128473200D01*
D28*
X166954200Y-129514600D02*
X166979600Y-129540000D01*
D29*
X149326600Y-108585000D02*
X149326600Y-108508800D01*
X169392600Y-138176000D02*
X169392600Y-131953000D01*
D28*
X169519600Y-138049000D02*
X169392600Y-138176000D01*
D29*
X166954200Y-104673400D02*
X166954200Y-104775000D01*
X166370000Y-101473000D02*
X166370000Y-103301800D01*
X166954200Y-100888800D02*
X167081200Y-100761800D01*
X150799800Y-134620000D02*
X145338800Y-134620000D01*
X166370000Y-101473000D02*
X166954200Y-100888800D01*
X145338800Y-109880400D02*
X145846800Y-109372400D01*
X166954200Y-129514600D02*
X166954200Y-128727200D01*
X145338800Y-134620000D02*
X145338800Y-109880400D01*
D28*
X149199600Y-109372400D02*
X149148800Y-109372400D01*
D27*
X123367800Y-109220000D02*
X126669800Y-105918000D01*
X129560800Y-105918000D02*
X126669800Y-105918000D01*
X151053800Y-137680500D02*
X151041300Y-137668000D01*
X123367800Y-137236200D02*
X123367800Y-109220000D01*
X151041300Y-137668000D02*
X123799600Y-137668000D01*
X123799600Y-137668000D02*
X123367800Y-137236200D01*
X152527000Y-138430000D02*
X123367800Y-138430000D01*
D28*
X156260800Y-106754900D02*
X156260800Y-106553000D01*
D27*
X122667800Y-137730000D02*
X122667800Y-106237000D01*
X123367800Y-138430000D02*
X122667800Y-137730000D01*
X122667800Y-106237000D02*
X126669800Y-102235000D01*
X129560800Y-102235000D02*
X126669800Y-102235000D01*
X129560800Y-134366000D02*
X126669800Y-134366000D01*
X126669800Y-134366000D02*
X126669800Y-136144000D01*
X155357600Y-109412000D02*
X155941800Y-109412000D01*
D28*
X155941800Y-109412000D02*
X156260800Y-109093000D01*
D27*
X152323800Y-136206000D02*
X152323800Y-112445800D01*
X126669800Y-136144000D02*
X126731800Y-136206000D01*
X126731800Y-136206000D02*
X152323800Y-136206000D01*
X152323800Y-112445800D02*
X155357600Y-109412000D01*
X124129800Y-133223000D02*
X124129800Y-136371949D01*
X153023800Y-136495949D02*
X153023800Y-114870000D01*
X124129800Y-136371949D02*
X124663851Y-136906000D01*
X153023800Y-114870000D02*
X156260800Y-111633000D01*
X124663851Y-136906000D02*
X152613749Y-136906000D01*
X129560800Y-130683000D02*
X126669800Y-130683000D01*
X126669800Y-130683000D02*
X124129800Y-133223000D01*
X152613749Y-136906000D02*
X153023800Y-136495949D01*
D28*
X156260800Y-114173000D02*
X158673800Y-111760000D01*
X158673800Y-96012000D02*
X170357800Y-84328000D01*
X158673800Y-111760000D02*
X158673800Y-96012000D01*
X178739800Y-84328000D02*
X178866800Y-84201000D01*
X170357800Y-84328000D02*
X178739800Y-84328000D01*
X156260800Y-116713000D02*
X160197800Y-112776000D01*
X169976800Y-86741000D02*
X178866800Y-86741000D01*
X160197800Y-96520000D02*
X169976800Y-86741000D01*
X160197800Y-112776000D02*
X160197800Y-96520000D01*
X161721800Y-97028000D02*
X169468800Y-89281000D01*
X161721800Y-113792000D02*
X161721800Y-97028000D01*
X169468800Y-89281000D02*
X178866800Y-89281000D01*
X156260800Y-119253000D02*
X161721800Y-113792000D01*
X181025800Y-120777000D02*
X181025800Y-123799600D01*
X181025800Y-120777000D02*
X181025800Y-103759000D01*
X171500800Y-129413000D02*
X172389800Y-129413000D01*
X181025800Y-103759000D02*
X178866800Y-103759000D01*
X181025800Y-123799600D02*
X180975000Y-123850400D01*
X172389800Y-129413000D02*
X181025800Y-120777000D01*
X178866800Y-71120000D02*
X178866800Y-73660000D01*
D27*
X118287800Y-99568000D02*
X118287800Y-103632000D01*
X129560800Y-91186000D02*
X126669800Y-91186000D01*
X118287800Y-103632000D02*
X118287800Y-121412000D01*
X126669800Y-91186000D02*
X118287800Y-99568000D01*
X129560800Y-119634000D02*
X126669800Y-119634000D01*
X120065800Y-101346000D02*
X120065800Y-121412000D01*
X126542800Y-94869000D02*
X120065800Y-101346000D01*
X129560800Y-123317000D02*
X126669800Y-123317000D01*
X126669800Y-94869000D02*
X126542800Y-94869000D01*
X129575800Y-94869000D02*
X126669800Y-94869000D01*
X129560800Y-127000000D02*
X126669800Y-127000000D01*
X129560800Y-98552000D02*
X126669800Y-98552000D01*
X121589800Y-104140000D02*
X121589800Y-121920000D01*
X121589800Y-103632000D02*
X121589800Y-104140000D01*
X121589800Y-121920000D02*
X121589800Y-127000000D01*
X126669800Y-98552000D02*
X121589800Y-103632000D01*
D28*
X171500800Y-114173000D02*
X171500800Y-114300000D01*
X175437800Y-118237000D02*
X178866800Y-118237000D01*
X171500800Y-114300000D02*
X175437800Y-118237000D01*
X175056800Y-115697000D02*
X178866800Y-115697000D01*
X171500800Y-112141000D02*
X175056800Y-115697000D01*
X171500800Y-111633000D02*
X171500800Y-112141000D01*
X178739800Y-113284000D02*
X178866800Y-113157000D01*
X171500800Y-109093000D02*
X175691800Y-113284000D01*
X175691800Y-113284000D02*
X178739800Y-113284000D01*
X175691800Y-110744000D02*
X178739800Y-110744000D01*
X178739800Y-110744000D02*
X178866800Y-110617000D01*
X171500800Y-106553000D02*
X175691800Y-110744000D01*
D29*
X180289200Y-76225400D02*
X181330600Y-77266800D01*
D30*
X172923200Y-75260200D02*
X170256200Y-72593200D01*
D29*
X174777400Y-107289600D02*
X175564800Y-108077000D01*
X174777400Y-92608400D02*
X174777400Y-107289600D01*
X174777400Y-107289600D02*
X171500800Y-104013000D01*
X175564800Y-108077000D02*
X178866800Y-108077000D01*
D30*
X170256200Y-72593200D02*
X170256200Y-67665600D01*
D29*
X180797200Y-91440000D02*
X175945800Y-91440000D01*
D28*
X171500800Y-104114600D02*
X171500800Y-104013000D01*
D30*
X170256200Y-67665600D02*
X167640000Y-65049400D01*
D29*
X172923200Y-75260200D02*
X173888400Y-76225400D01*
X175945800Y-91440000D02*
X174777400Y-92608400D01*
X181330600Y-77266800D02*
X181330600Y-90906600D01*
X181330600Y-90906600D02*
X180797200Y-91440000D01*
X173888400Y-76225400D02*
X180289200Y-76225400D01*
D30*
X178866800Y-52070000D02*
X178739800Y-52070000D01*
X178866800Y-52070000D02*
X178866800Y-54610000D01*
X148640800Y-119380000D02*
X150799800Y-119380000D01*
X147726400Y-91109800D02*
X147726400Y-105816400D01*
X150799800Y-90932000D02*
X147904200Y-90932000D01*
X148285200Y-119024400D02*
X148640800Y-119380000D01*
X147783800Y-110998000D02*
X147783800Y-118523000D01*
X147783800Y-118523000D02*
X148285200Y-119024400D01*
X147904200Y-90932000D02*
X147726400Y-91109800D01*
X148285200Y-119024400D02*
X148285200Y-133146800D01*
X150647400Y-114477800D02*
X150647400Y-116687600D01*
X153543000Y-107873800D02*
X150418800Y-110998000D01*
X178866800Y-59817000D02*
X172974000Y-59817000D01*
X172974000Y-59817000D02*
X167513000Y-59817000D01*
X145476700Y-60539100D02*
X145550000Y-60465800D01*
X178866800Y-57150000D02*
X178866800Y-59690000D01*
X132791200Y-67081400D02*
X126248900Y-60539100D01*
X126248900Y-60539100D02*
X118392400Y-60539100D01*
X145550000Y-60465800D02*
X145550000Y-52120800D01*
X161467800Y-65862200D02*
X161467800Y-67259200D01*
X153543000Y-89712800D02*
X153543000Y-107873800D01*
X172923200Y-65100200D02*
X172923200Y-59867800D01*
X161467800Y-85344000D02*
X158115000Y-88696800D01*
X158115000Y-88696800D02*
X154559000Y-88696800D01*
X167513000Y-59817000D02*
X161467800Y-65862200D01*
X132791200Y-67081400D02*
X161290000Y-67081400D01*
D29*
X150647400Y-116687600D02*
X150799800Y-116840000D01*
D30*
X154559000Y-88696800D02*
X153543000Y-89712800D01*
X126248900Y-60539100D02*
X145476700Y-60539100D01*
X149783800Y-113614200D02*
X150647400Y-114477800D01*
X161467800Y-67259200D02*
X161467800Y-85344000D01*
X172923200Y-59867800D02*
X172974000Y-59817000D01*
X149783800Y-110998000D02*
X149783800Y-113614200D01*
X150418800Y-110998000D02*
X149783800Y-110998000D01*
X161290000Y-67081400D02*
X161467800Y-67259200D01*
X169341800Y-48260000D02*
X172897800Y-44704000D01*
D29*
X172897800Y-44450000D02*
X172897800Y-44704000D01*
D30*
X155117800Y-44704000D02*
X158673800Y-48260000D01*
X158673800Y-48260000D02*
X169341800Y-48260000D01*
D27*
X132765800Y-88392000D02*
X131622800Y-87249000D01*
X138099800Y-88392000D02*
X132765800Y-88392000D01*
D28*
X132003800Y-115570000D02*
X136829800Y-115570000D01*
X136829800Y-115570000D02*
X138099800Y-116840000D01*
X131749800Y-115824000D02*
X132003800Y-115570000D01*
D27*
X138099800Y-90932000D02*
X134035800Y-90932000D01*
X133781800Y-91186000D02*
X130860800Y-91186000D01*
D28*
X134035800Y-90932000D02*
X133781800Y-91186000D01*
D27*
X133781800Y-94869000D02*
X130875800Y-94869000D01*
X135178800Y-93472000D02*
X133781800Y-94869000D01*
X138099800Y-93472000D02*
X135178800Y-93472000D01*
X136321800Y-96012000D02*
X133781800Y-98552000D01*
X133781800Y-98552000D02*
X130860800Y-98552000D01*
X138099800Y-96012000D02*
X136321800Y-96012000D01*
X133781800Y-102235000D02*
X130860800Y-102235000D01*
X135178800Y-103632000D02*
X133781800Y-102235000D01*
X138099800Y-103632000D02*
X135178800Y-103632000D01*
D28*
X134035800Y-106172000D02*
X133781800Y-105918000D01*
D27*
X138099800Y-106172000D02*
X134035800Y-106172000D01*
X133781800Y-105918000D02*
X130860800Y-105918000D01*
D28*
X134035800Y-119380000D02*
X133781800Y-119634000D01*
D27*
X133781800Y-119634000D02*
X130860800Y-119634000D01*
X138099800Y-119380000D02*
X134035800Y-119380000D01*
X138099800Y-124460000D02*
X136321800Y-124460000D01*
X136321800Y-124460000D02*
X133781800Y-127000000D01*
X133781800Y-127000000D02*
X130860800Y-127000000D01*
X138099800Y-121920000D02*
X135178800Y-121920000D01*
X130860800Y-123317000D02*
X133781800Y-123317000D01*
X135178800Y-121920000D02*
X133781800Y-123317000D01*
D28*
X134035800Y-134620000D02*
X133781800Y-134366000D01*
D27*
X138099800Y-134620000D02*
X134035800Y-134620000D01*
X133781800Y-134366000D02*
X130860800Y-134366000D01*
X133781800Y-130683000D02*
X130860800Y-130683000D01*
X138099800Y-132080000D02*
X135178800Y-132080000D01*
X135178800Y-132080000D02*
X133781800Y-130683000D01*
D28*
X184912000Y-133959600D02*
X179197000Y-139674600D01*
X185674000Y-133959600D02*
X184912000Y-133959600D01*
X179197000Y-139674600D02*
X168351200Y-139674600D01*
X168351200Y-139674600D02*
X166852600Y-138176000D01*
X138099800Y-127000000D02*
X141655800Y-123444000D01*
X141681200Y-107162600D02*
X141655800Y-107188000D01*
X141655800Y-104648000D02*
X138099800Y-101092000D01*
X138099800Y-98552000D02*
X138099800Y-101092000D01*
X141655800Y-123444000D02*
X141655800Y-107696000D01*
X141655800Y-107696000D02*
X141655800Y-104648000D01*
X150825200Y-107696000D02*
X150241000Y-107696000D01*
X150241000Y-107696000D02*
X149707600Y-107162600D01*
X138099800Y-129540000D02*
X138099800Y-127000000D01*
X149707600Y-107162600D02*
X141681200Y-107162600D01*
M02*
